# xmcd
#
# Track frame offsets: 
#        150
#        15184
#        35517
#        53671
#        70608
#        87136
#        99742
#        115014
#        130102
#        145867
#        157770
#        176860
#
# Disc length: 2519 seconds
#
# Revision: 0
# Processed by: cddbd v1.5.2PL0 Copyright (c) Steve Scherf et al.
# Submitted via: ExactAudioCopyFreeDBPlugin 1.0
#
DISCID=8c09d50c
DTITLE=Charlie Walker - Near The Cross (2009)
DYEAR=2009
DGENRE=Country
TTITLE0=Unclouded Day
TTITLE1=What A Friend
TTITLE2=It Is Well
TTITLE3=My Jesus I Love Thee
TTITLE4=Come Thou Fount
TTITLE5=Nothing But The Blood
TTITLE6=I'd Rather Have Jesus
TTITLE7=Rock Of Ages
TTITLE8=At The Cross
TTITLE9=Are You Washed In The Blood
TTITLE10=Near The Cross
TTITLE11=When I Survey The Cross
EXTD=
EXTT0=
EXTT1=
EXTT2=
EXTT3=
EXTT4=
EXTT5=
EXTT6=
EXTT7=
EXTT8=
EXTT9=
EXTT10=
EXTT11=
PLAYORDER=
